<?xml version="1.0" encoding="utf-8"?>
<!-- Generator: Adobe Illustrator 24.0.2, SVG Export Plug-In . SVG Version: 6.00 Build 0)  -->
<svg version="1.1" id="Layer_1" xmlns="http://www.w3.org/2000/svg" xmlns:xlink="http://www.w3.org/1999/xlink" x="0px" y="0px"
	 viewBox="0 0 512 512" style="enable-background:new 0 0 512 512;" xml:space="preserve">
<style type="text/css">
	.st0{fill:#FFFFFF;stroke:#AACFD0;stroke-width:5;stroke-miterlimit:10;}
</style>
<g>
	<path class="st0" d="M470.8,123.2H285.3V15.9c0-5.4-4.4-9.8-9.8-9.8H41.2c-5.4,0-9.8,4.4-9.8,9.8v480.3c0,5.4,4.4,9.8,9.8,9.8
		h234.3h195.2c5.4,0,9.8-4.4,9.8-9.8V133C480.5,127.6,476.1,123.2,470.8,123.2z M285.3,142.8H461v246H285.3V142.8z M129.1,486.4
		v-78.1h58.6v78.1H129.1z M197.4,388.8h-78.1c-5.4,0-9.8,4.4-9.8,9.8v87.9H51V25.6h214.8v460.7h-58.6v-87.9
		C207.2,393.1,202.8,388.8,197.4,388.8z M285.3,486.4v-78.1H461v78.1H285.3z"/>
	<path class="st0" d="M148.6,84.2h19.5c5.4,0,9.8-4.4,9.8-9.8V54.9c0-5.4-4.4-9.8-9.8-9.8h-19.5c-5.4,0-9.8,4.4-9.8,9.8v19.5
		C138.9,79.8,143.2,84.2,148.6,84.2z"/>
	<path class="st0" d="M148.6,152.5h19.5c5.4,0,9.8-4.4,9.8-9.8v-19.5c0-5.4-4.4-9.8-9.8-9.8h-19.5c-5.4,0-9.8,4.4-9.8,9.8v19.5
		C138.9,148.2,143.2,152.5,148.6,152.5z"/>
	<path class="st0" d="M148.6,220.9h19.5c5.4,0,9.8-4.4,9.8-9.8v-19.5c0-5.4-4.4-9.8-9.8-9.8h-19.5c-5.4,0-9.8,4.4-9.8,9.8v19.5
		C138.9,216.5,143.2,220.9,148.6,220.9z"/>
	<path class="st0" d="M148.6,289.2h19.5c5.4,0,9.8-4.4,9.8-9.8v-19.5c0-5.4-4.4-9.8-9.8-9.8h-19.5c-5.4,0-9.8,4.4-9.8,9.8v19.5
		C138.9,284.8,143.2,289.2,148.6,289.2z"/>
	<path class="st0" d="M148.6,357.5h19.5c5.4,0,9.8-4.4,9.8-9.8v-19.5c0-5.4-4.4-9.8-9.8-9.8h-19.5c-5.4,0-9.8,4.4-9.8,9.8v19.5
		C138.9,353.1,143.2,357.5,148.6,357.5z"/>
	<path class="st0" d="M80.3,84.2h19.5c5.4,0,9.8-4.4,9.8-9.8V54.9c0-5.4-4.4-9.8-9.8-9.8H80.3c-5.4,0-9.8,4.4-9.8,9.8v19.5
		C70.5,79.8,74.9,84.2,80.3,84.2z"/>
	<path class="st0" d="M80.3,152.5h19.5c5.4,0,9.8-4.4,9.8-9.8v-19.5c0-5.4-4.4-9.8-9.8-9.8H80.3c-5.4,0-9.8,4.4-9.8,9.8v19.5
		C70.5,148.2,74.9,152.5,80.3,152.5z"/>
	<path class="st0" d="M80.3,220.9h19.5c5.4,0,9.8-4.4,9.8-9.8v-19.5c0-5.4-4.4-9.8-9.8-9.8H80.3c-5.4,0-9.8,4.4-9.8,9.8v19.5
		C70.5,216.5,74.9,220.9,80.3,220.9z"/>
	<path class="st0" d="M80.3,289.2h19.5c5.4,0,9.8-4.4,9.8-9.8v-19.5c0-5.4-4.4-9.8-9.8-9.8H80.3c-5.4,0-9.8,4.4-9.8,9.8v19.5
		C70.5,284.8,74.9,289.2,80.3,289.2z"/>
	<path class="st0" d="M80.3,357.5h19.5c5.4,0,9.8-4.4,9.8-9.8v-19.5c0-5.4-4.4-9.8-9.8-9.8H80.3c-5.4,0-9.8,4.4-9.8,9.8v19.5
		C70.5,353.1,74.9,357.5,80.3,357.5z"/>
	<path class="st0" d="M236.5,45.2H217c-5.4,0-9.8,4.4-9.8,9.8v19.5c0,5.4,4.4,9.8,9.8,9.8h19.5c5.4,0,9.8-4.4,9.8-9.8V54.9
		C246.2,49.5,241.9,45.2,236.5,45.2z"/>
	<path class="st0" d="M236.5,113.5H217c-5.4,0-9.8,4.4-9.8,9.8v19.5c0,5.4,4.4,9.8,9.8,9.8h19.5c5.4,0,9.8-4.4,9.8-9.8v-19.5
		C246.2,117.9,241.9,113.5,236.5,113.5z"/>
	<path class="st0" d="M236.5,181.8H217c-5.4,0-9.8,4.4-9.8,9.8v19.5c0,5.4,4.4,9.8,9.8,9.8h19.5c5.4,0,9.8-4.4,9.8-9.8v-19.5
		C246.2,186.2,241.9,181.8,236.5,181.8z"/>
	<path class="st0" d="M236.5,250.1H217c-5.4,0-9.8,4.4-9.8,9.8v19.5c0,5.4,4.4,9.8,9.8,9.8h19.5c5.4,0,9.8-4.4,9.8-9.8v-19.5
		C246.2,254.5,241.9,250.1,236.5,250.1z"/>
	<path class="st0" d="M236.5,318.5H217c-5.4,0-9.8,4.4-9.8,9.8v19.5c0,5.4,4.4,9.8,9.8,9.8h19.5c5.4,0,9.8-4.4,9.8-9.8v-19.5
		C246.2,322.8,241.9,318.5,236.5,318.5z"/>
	<path class="st0" d="M417.1,181.8h-19.5c-5.4,0-9.8,4.4-9.8,9.8v19.5c0,5.4,4.4,9.8,9.8,9.8h19.5c5.4,0,9.8-4.4,9.8-9.8v-19.5
		C426.8,186.2,422.5,181.8,417.1,181.8z"/>
	<path class="st0" d="M417.1,250.1h-19.5c-5.4,0-9.8,4.4-9.8,9.8v19.5c0,5.4,4.4,9.8,9.8,9.8h19.5c5.4,0,9.8-4.4,9.8-9.8v-19.5
		C426.8,254.5,422.5,250.1,417.1,250.1z"/>
	<path class="st0" d="M417.1,318.5h-19.5c-5.4,0-9.8,4.4-9.8,9.8v19.5c0,5.4,4.4,9.8,9.8,9.8h19.5c5.4,0,9.8-4.4,9.8-9.8v-19.5
		C426.8,322.8,422.5,318.5,417.1,318.5z"/>
	<path class="st0" d="M348.7,181.8h-19.5c-5.4,0-9.8,4.4-9.8,9.8v19.5c0,5.4,4.4,9.8,9.8,9.8h19.5c5.4,0,9.8-4.4,9.8-9.8v-19.5
		C358.5,186.2,354.1,181.8,348.7,181.8z"/>
	<path class="st0" d="M348.7,250.1h-19.5c-5.4,0-9.8,4.4-9.8,9.8v19.5c0,5.4,4.4,9.8,9.8,9.8h19.5c5.4,0,9.8-4.4,9.8-9.8v-19.5
		C358.5,254.5,354.1,250.1,348.7,250.1z"/>
	<path class="st0" d="M348.7,318.5h-19.5c-5.4,0-9.8,4.4-9.8,9.8v19.5c0,5.4,4.4,9.8,9.8,9.8h19.5c5.4,0,9.8-4.4,9.8-9.8v-19.5
		C358.5,322.8,354.1,318.5,348.7,318.5z"/>
</g>
</svg>
