<?xml version="1.0" encoding="utf-8"?>
<!-- Generator: Adobe Illustrator 24.0.2, SVG Export Plug-In . SVG Version: 6.00 Build 0)  -->
<svg version="1.1" id="a4efc002-80f6-4f30-a290-092c25b18b21"
	 xmlns="http://www.w3.org/2000/svg" xmlns:xlink="http://www.w3.org/1999/xlink" x="0px" y="0px" viewBox="0 0 1149 784.1"
	 style="enable-background:new 0 0 1149 784.1;" xml:space="preserve">
<style type="text/css">
	.st0{fill:#3F3D56;}
	.st1{opacity:0.1;enable-background:new    ;}
	.st2{fill:#79A8A9;}
	.st3{fill:#A8A8A8;}
	.st4{opacity:0.2;enable-background:new    ;}
	.st5{fill:#F2F2F2;}
	.st6{opacity:0.3;fill:#72D5D6;enable-background:new    ;}
	.st7{fill:#A0616A;}
	.st8{fill:#575A89;}
	.st9{fill:#2F2E41;}
	.st10{fill:#FFFFFF;}
</style>
<title>done</title>
<path class="st0" d="M435,747.1c0,20.4-95.8,37-214,37S7,767.5,7,747.1c0-5.1,6-10,16.8-14.4c31.5-12.9,104-22,189.3-22.6
	c2.6,0,5.3,0,7.9,0C339.2,710.1,435,726.6,435,747.1z"/>
<path class="st1" d="M213.1,710.1c-35.1,57.2-109.9,75.1-167.1,40c-8-4.9-15.5-10.8-22.2-17.5C55.3,719.8,127.8,710.6,213.1,710.1z"
	/>
<ellipse class="st0" cx="112" cy="628.1" rx="112" ry="120"/>
<path class="st0" d="M249.4,83.3c15.9,61.2,67.1,100.7,114.5,88.4"/>
<path class="st2" d="M364,171.7c-16.1-61.9,13.8-123,66.7-136.8"/>
<path class="st2" d="M282,80.8c15.1,58.1,51.8,98.8,82,90.9"/>
<path class="st0" d="M364,171.7C343.4,92.7,376.3,15.9,437.5,0"/>
<path class="st3" d="M346.1,177.2c0,0,12.1-3.5,15.1-7.1s17.2-10.6,19.2-6.6s23.7,16.1,10,19.8s-32.5,6.1-36.7,4.9
	S346.1,177.2,346.1,177.2z"/>
<path class="st4" d="M390.3,181.7c-13.7,3.7-32.5,6.1-36.7,4.9c-3.2-1-5.9-6.8-7-9.5c-0.3,0.1-0.4,0.1-0.4,0.1s3.3,9.6,7.6,10.9
	s23-1.2,36.7-4.9c4-1.1,5-2.8,4.3-4.9C394.5,179.7,393.2,180.9,390.3,181.7z"/>
<rect x="343" y="126.1" class="st5" width="806" height="467"/>
<rect x="362" y="267.8" class="st6" width="442" height="231.5"/>
<rect x="838" y="257.7" class="st0" width="177.3" height="9.8"/>
<rect x="838" y="275.8" class="st0" width="258" height="9.8"/>
<rect x="838" y="319.6" class="st0" width="177.3" height="9.8"/>
<rect x="838" y="392" class="st0" width="177.3" height="9.8"/>
<rect x="838" y="337.7" class="st0" width="258" height="9.8"/>
<rect x="838" y="355.8" class="st0" width="258" height="9.8"/>
<rect x="838" y="373.9" class="st0" width="258" height="9.8"/>
<rect x="838" y="435.8" class="st2" width="92.8" height="25.6"/>
<path class="st7" d="M314.5,407.9c0,0,16.7-47.2,28.7-32.4s-18.5,39.8-18.5,39.8L314.5,407.9z"/>
<path class="st8" d="M235.8,361.6l10,3.7c0,0,4.8,21.3,2.9,25s-2.8,0.9,0,8.3s11.1,26.8,12,29.6s53.7-17.6,53.7-27.8
	c0,0,11.1,13,16.7,15.7c0,0-61.1,44.4-69.4,50s-13,2.8-20.4-3.7s-38.9-60.1-38.9-60.1L235.8,361.6z"/>
<path class="st9" d="M262.7,690.2c0,0-0.9,10.2-2.8,11.1s-15.7,24.1,0,28.7s25,2.8,28.7,4.6s68.5,5.6,69.4-4.6s-31.5-12-31.5-12
	s-29.6-19.4-34.2-29.6S262.7,690.2,262.7,690.2z"/>
<path class="st9" d="M74.8,708.7c0,0-22.2,37.9-16.7,42.6s59.6,21.5,67.6,22.2c10.2,0.9,17.6-7.4,9.3-12s-25.9-24.1-25.9-30.5v-16.7
	L74.8,708.7z"/>
<path class="st9" d="M53.5,460.7c0,0-19.4,24.1,11.1,62.9l50.9,64.8c0,0-31.5,50-32.4,75.9s-7.4,20.4-9.3,31.5s-10.2,5.6-3.7,13.9
	s30.5,15.7,37.9,9.3s7.4-14.8,7.4-18.5s13-25,13.9-31.5s35.2-59.2,35.2-59.2s11.1-31.5-1.9-49s-21.5-42.5-21.5-42.5
	s38.2,46.2,65,57.3c0,0,10.2,1.9,8.3,6.5s0,7.4,2.8,12s22.2,58.3,28.7,72.2s3.7,22.2,11.1,26.8s40.7,0.9,40.7-3.7
	s-4.6-16.7-7.4-23.1s-25-81.4-23.1-94.4s-0.9-30.5-14.8-37.9s-84.2-67.6-87.9-67.6S53.5,460.7,53.5,460.7z"/>
<circle class="st7" cx="239.5" cy="276.5" r="38.9"/>
<path class="st7" d="M208.1,280.2c0,0-12,21.3-26.8,24.1s38.9,45.3,38.9,45.3s13-40.7,24.1-42.6S208.1,280.2,208.1,280.2z"/>
<path class="st8" d="M246,367.2c0,12-36.1,46.3-36.1,46.3l-34.2,28.7c0,0-0.9,10.2-4.6,11.1s-8.3,0.9-4.6,6.5s13,17.6,4.6,19.4
	c-2.5,0.4-5,0.6-7.6,0.7c-2.2,0.1-4.8,0.2-7.8,0.4c-6.8,0.2-15.4,0.4-24.7,0.3c-2.6,0-5.3,0-8.1-0.1c-35-0.7-75.5-4.7-72.2-18
	c5.6-22.2,1.9-29.6,13.9-41.6s31.5-53.7,31.5-53.7s38.9-65.7,71.3-65.7l6.7-1.8c6.4-1.7,13.2,0.9,16.8,6.5
	c6.5,9.9,16.7,24.8,22.7,29.5c9.3,7.4,10.7,2.1,10.7,2.1S246,355.2,246,367.2z"/>
<path class="st7" d="M163.7,507.9c0,0,26.8,41.6,10.2,49s-25.9-43.5-25.9-43.5L163.7,507.9z"/>
<path class="st9" d="M214.1,272.1c1.5-0.2,2-2.1,2.2-3.6c1.3-7.9,7.3-15.5,15.2-16.7c3-0.4,6.1-0.2,9.1,0.7
	c4.2,1.2,8.1,3.1,11.6,5.7c1.8,1.4,3.6,3,5.8,3.6c1.5,0.4,7.7,3.2,9.1,3.6c3.2,1,5.8,4.4,9.1,3.7c3.1-0.6,4.3-4.4,4.8-7.6
	c1.1-7.2-3-17.9-7.1-24c-3.1-4.6-8.4-7.2-13.6-8.9c-6.2-1.9-12.5-3.1-18.9-3.8c-8.6-1-17.6-1.6-25.9,1.1s-15.8,9.2-17.4,17.8
	c-0.3,1.8-0.4,3.6-0.8,5.4c-1,4.3-3.8,7.9-5.5,12c-2.4,6.1-2.2,12.9,0.7,18.8c2.3,4.6,6.3,9.1,5.5,14.2l7.1-5.6
	c2.1-1.2,3.1-3.7,2.4-6.1l-1-8.9c-0.2-1.6-0.4-3.4,0.5-4.8C210.3,263.4,211.6,272.4,214.1,272.1z"/>
<path class="st1" d="M147,444l8.7,36.2c-8.8,0.3-20.4,0.5-32.7,0.2c-3.1-9.3-6.1-19.1-8.4-28.2c-8.3-33.3,5.6-84.2,13-108.3
	s25.9-30.5,25.9-30.5s9.3,2.8,21.3,11.1S147,444,147,444z"/>
<path class="st1" d="M154.4,442.2l9.1,37.7c-2.2,0.1-4.8,0.2-7.8,0.4c-6.8,0.2-15.4,0.4-24.7,0.3c-3.3-9.9-6.6-20.4-9-30.1
	c-8.3-33.3,5.6-84.2,13-108.3s23.6,2.3,23.6,2.3s-6.5-15.7,5.6-7.4S154.4,442.2,154.4,442.2z"/>
<path class="st8" d="M157.2,311.7c0,0-18.5,6.5-25.9,30.5s-21.3,75-13,108.3s25.9,75,25.9,75s17.6-13,24.1-10.2l-17.6-73.1
	c0,0,39.8-111,27.8-119.4S157.2,311.7,157.2,311.7z"/>
<rect x="343" y="243.8" class="st0" width="442" height="231.5"/>
<ellipse class="st10" cx="572.2" cy="364.1" rx="50" ry="50.1"/>
<path class="st2" d="M572.2,305.5c-33,0-59.8,26.8-59.8,59.8s26.8,59.8,59.8,59.8c33,0,59.8-26.8,59.8-59.8
	C631.9,332.3,605.2,305.6,572.2,305.5z M560,397.1l-30.6-30.6l8.6-8.6L560,380l46.6-46.6l8.6,8.6L560,397.1L560,397.1z"/>
</svg>
