<?xml version="1.0" encoding="utf-8"?>
<!-- Generator: Adobe Illustrator 24.0.2, SVG Export Plug-In . SVG Version: 6.00 Build 0)  -->
<svg version="1.1" id="Capa_1" xmlns="http://www.w3.org/2000/svg" xmlns:xlink="http://www.w3.org/1999/xlink" x="0px" y="0px"
	 viewBox="0 0 512 512" style="enable-background:new 0 0 512 512;" xml:space="preserve">
<style type="text/css">
	.st0{fill:#FFFFFF;stroke:#AACFD0;stroke-width:5;stroke-miterlimit:10;}
	.st1{fill:#AACFD0;}
</style>
<g>
	<g>
		<path class="st0" d="M348.6,9H163.4c-21.3,0-38.6,17.3-38.6,38.6v416.8c0,21.3,17.3,38.6,38.6,38.6h185.3
			c21.3,0,38.6-17.3,38.6-38.6V47.6C387.2,26.3,369.9,9,348.6,9z M371.8,464.4c0,12.8-10.4,23.2-23.2,23.2H163.4
			c-12.8,0-23.2-10.4-23.2-23.2v-46.3h231.6V464.4z M371.8,402.7H140.2V93.9h231.6V402.7z M371.8,78.5H140.2V47.6
			c0-12.8,10.4-23.2,23.2-23.2h185.3c12.8,0,23.2,10.4,23.2,23.2V78.5z"/>
	</g>
</g>
<g>
	<g>
		<path class="st1" d="M256,425.8c-12.8,0-23.2,10.4-23.2,23.2s10.4,23.2,23.2,23.2s23.2-10.4,23.2-23.2S268.8,425.8,256,425.8z
			 M256,456.7c-4.3,0-7.7-3.5-7.7-7.7s3.5-7.7,7.7-7.7c4.3,0,7.7,3.5,7.7,7.7S260.3,456.7,256,456.7z"/>
	</g>
</g>
<g>
	<g>
		<path class="st1" d="M286.9,47.6h-61.8c-4.3,0-7.7,3.5-7.7,7.7s3.5,7.7,7.7,7.7h61.8c4.3,0,7.7-3.5,7.7-7.7S291.1,47.6,286.9,47.6
			z"/>
	</g>
</g>
<g>
	<g>
		<path class="st1" d="M348.6,371.8h-7.7c-4.3,0-7.7,3.5-7.7,7.7s3.5,7.7,7.7,7.7h7.7c4.3,0,7.7-3.5,7.7-7.7
			S352.9,371.8,348.6,371.8z"/>
	</g>
</g>
<g>
	<g>
		<path class="st1" d="M317.8,371.8H310c-4.3,0-7.7,3.5-7.7,7.7s3.5,7.7,7.7,7.7h7.7c4.3,0,7.7-3.5,7.7-7.7S322,371.8,317.8,371.8z"
			/>
	</g>
</g>
<g>
	<g>
		<path class="st1" d="M286.9,371.8h-7.7c-4.3,0-7.7,3.5-7.7,7.7s3.5,7.7,7.7,7.7h7.7c4.3,0,7.7-3.5,7.7-7.7
			S291.1,371.8,286.9,371.8z"/>
	</g>
</g>
</svg>
