<?xml version="1.0" encoding="utf-8"?>
<!-- Generator: Adobe Illustrator 24.0.2, SVG Export Plug-In . SVG Version: 6.00 Build 0)  -->
<svg version="1.1" id="Layer_1" xmlns="http://www.w3.org/2000/svg" xmlns:xlink="http://www.w3.org/1999/xlink" x="0px" y="0px"
	 viewBox="0 0 512 512" style="enable-background:new 0 0 512 512;" xml:space="preserve">
<style type="text/css">
	.st0{fill:#FFFFFF;stroke:#AACFD0;stroke-width:5;stroke-miterlimit:10;}
</style>
<path class="st0" d="M487.3,109.1H93.2l-5.9-65.3C86.4,33.2,77.4,25,66.7,25H24.7C13.2,25,4,34.3,4,45.7s9.3,20.7,20.7,20.7h23.1
	c12.6,140.8-20-223.2,23.8,265.3c1.7,19.1,12,39.9,29.8,54c-32.1,41-2.8,101.4,49.4,101.4c43.3,0,73.9-43.2,59-84.1h113.3
	c-14.8,40.9,15.7,84.1,59,84.1c34.6,0,62.8-28.2,62.8-62.8s-28.2-62.8-62.8-62.8H151c-15.7,0-29.4-9.5-35.3-23.3l330.8-19.4
	c9-0.5,16.7-6.9,18.9-15.6l42.1-168.2C510.7,121.8,500.8,109.1,487.3,109.1L487.3,109.1z M150.8,445.6c-11.8,0-21.4-9.6-21.4-21.4
	s9.6-21.4,21.4-21.4c11.8,0,21.4,9.6,21.4,21.4S162.6,445.6,150.8,445.6z M382.2,445.6c-11.8,0-21.4-9.6-21.4-21.4
	s9.6-21.4,21.4-21.4s21.4,9.6,21.4,21.4S394,445.6,382.2,445.6z M428.9,278.3L110.1,297L96.9,150.5h363.9L428.9,278.3z"/>
</svg>
